<svg width="24" height="24" viewBox="0 0 24 24" fill="none" xmlns="http://www.w3.org/2000/svg">
<path d="M19 12H12V5C12 4.45 11.55 4 11 4C6.04 4 2 8.04 2 13C2 17.96 6.04 22 11 22C15.96 22 20 17.96 20 13C20 12.45 19.55 12 19 12ZM11 20C7.14 20 4 16.86 4 13C4 9.48 6.61 6.56 10 6.07V13C10 13.55 10.45 14 11 14H17.93C17.44 17.39 14.52 20 11 20ZM15 2C14.45 2 14 2.45 14 3V9C14 9.55 14.45 10 15 10H21C21.55 10 22 9.55 22 9C22 5.14 18.86 2 15 2ZM16 8V4.1C17.96 4.5 19.5 6.04 19.9 8H16Z" fill="#0095cb"/>
</svg>
