<svg width="24" height="24" viewBox="0 0 24 24" fill="none" xmlns="http://www.w3.org/2000/svg">
<path d="M15.71 8.29C16.1 8.68 16.1 9.31 15.71 9.7L9.71 15.7C9.51 15.9 9.26 15.99 9 15.99C8.74 15.99 8.49 15.89 8.29 15.7C7.9 15.31 7.9 14.68 8.29 14.29L14.29 8.29C14.68 7.9 15.31 7.9 15.7 8.29H15.71ZM9 10C9.55 10 10 9.55 10 9C10 8.45 9.55 8 9 8C8.45 8 8 8.45 8 9C8 9.55 8.45 10 9 10ZM15 14C14.45 14 14 14.45 14 15C14 15.55 14.45 16 15 16C15.55 16 16 15.55 16 15C16 14.45 15.55 14 15 14ZM20 6V18C20 20.21 18.21 22 16 22H15.45C14.74 22 14.08 21.62 13.72 21.01C13.35 20.38 12.71 20 12 20C11.29 20 10.65 20.38 10.28 21.01C9.92 21.63 9.26 22 8.55 22H8C5.79 22 4 20.21 4 18V6C4 3.79 5.79 2 8 2H8.56C9.27 2 9.93 2.38 10.29 2.99C10.66 3.62 11.3 4 12.01 4C12.72 4 13.36 3.62 13.73 2.99C14.09 2.38 14.75 2 15.46 2H16.02C18.23 2 20.02 3.79 20.02 6H20ZM18 6C18 4.9 17.1 4 16 4H15.44C14.75 5.19 13.47 6 12 6C10.53 6 9.25 5.19 8.56 4H8C6.9 4 6 4.9 6 6V18C6 19.1 6.9 20 8 20H8.55C9.24 18.81 10.52 18 12 18C13.48 18 14.75 18.81 15.45 20H16C17.1 20 18 19.1 18 18V6Z" fill="#0095cb"/>
</svg>
