<svg width="24" height="24" viewBox="0 0 24 24" fill="none" xmlns="http://www.w3.org/2000/svg">
<path d="M22 12C22 11.24 21.57 10.55 20.89 10.21L20.47 10L20.89 9.79C21.57 9.45 22 8.76 22 8C22 7.24 21.57 6.55 20.89 6.21L12.89 2.21C12.61 2.07 12.3 2 12 2C11.7 2 11.39 2.07 11.11 2.21L3.11 6.21C2.43 6.55 2 7.24 2 8C2 8.76 2.43 9.45 3.11 9.79L3.53 10L3.11 10.21C2.43 10.55 2 11.24 2 12C2 12.76 2.43 13.45 3.11 13.79L3.53 14L3.11 14.21C2.43 14.55 2 15.24 2 16C2 16.76 2.43 17.45 3.11 17.79L11.11 21.79C11.39 21.93 11.7 22 12 22C12.3 22 12.61 21.93 12.89 21.79L20.89 17.79C21.57 17.45 22 16.76 22 16C22 15.24 21.57 14.55 20.89 14.21L20.47 14L20.89 13.79C21.57 13.45 22 12.76 22 12ZM12 4L20 8L12 12L4 8L12 4ZM11.11 13.79C11.39 13.93 11.7 14 12 14C12.3 14 12.61 13.93 12.89 13.79L18.23 11.12L19.99 12L11.99 16L4 12L5.76 11.12L11.1 13.79H11.11ZM20 16L12 20L4 16L5.76 15.12L11.1 17.79C11.38 17.93 11.69 18 11.99 18C12.29 18 12.6 17.93 12.88 17.79L18.22 15.12L19.98 16H20Z" fill="#0095cb"/>
</svg>
