<svg width="112" height="32" viewBox="0 0 112 32" fill="none" xmlns="http://www.w3.org/2000/svg">
<path fill-rule="evenodd" clip-rule="evenodd" d="M56.1575 18.1004C56.2333 16.896 55.8903 15.7027 55.186 14.7225L55.2033 14.6887C54.8504 14.2911 54.4108 13.9794 53.9193 13.7774C53.4278 13.5754 52.8959 13.4885 52.3657 13.5234C51.6886 13.4967 51.0157 13.6481 50.4154 13.9625C49.8694 14.2943 49.4373 14.7829 49.1734 15.3643C48.9714 14.7809 48.5632 14.2914 48.0255 13.9879C47.3971 13.6562 46.692 13.496 45.982 13.5234C45.7255 13.5057 45.469 13.5136 45.2159 13.5464C44.9033 13.5869 44.5957 13.6652 44.3005 13.7806C43.7661 13.9893 43.2853 14.3139 42.8911 14.731C42.116 15.7375 41.7374 16.9936 41.8273 18.2608V21.6386C41.7333 22.9143 42.125 24.1783 42.925 25.1769C43.3447 25.5966 43.8502 25.9209 44.4069 26.1277C44.9635 26.3346 45.5581 26.4194 46.1502 26.376C46.7497 26.4222 47.3526 26.34 47.9175 26.1346C48.4823 25.9293 48.9969 25.6056 49.4274 25.1854C50.2282 24.1845 50.6207 22.9172 50.525 21.6386V18.1173C50.4756 17.4856 50.5976 16.8523 50.8796 16.2848C51.0091 16.0974 51.1856 15.9478 51.3917 15.8513C51.5979 15.7548 51.8263 15.715 52.0531 15.7359C52.2766 15.7136 52.5026 15.7521 52.7063 15.8472C52.7681 15.8761 52.8275 15.91 52.8836 15.9483C52.9124 15.9683 52.9413 15.9896 52.9685 16.0121C52.999 16.0371 53.0279 16.0636 53.0559 16.0914L53.112 16.1503C53.1475 16.19 53.1804 16.2322 53.2101 16.2763C53.4823 16.8497 53.5994 17.4845 53.5482 18.1173V21.1488C53.5581 22.8735 53.272 24.5873 52.7038 26.2156H55.2371C55.8763 24.6043 56.1888 22.8821 56.1575 21.1488V18.1004ZM47.7385 16.7408C47.8696 17.242 47.9265 17.7599 47.9067 18.2777V21.6133C47.9265 22.1311 47.8696 22.649 47.7385 23.1502C47.6626 23.4658 47.473 23.7425 47.2058 23.9271C46.8833 24.1034 46.518 24.1853 46.1502 24.1635C45.8022 24.1844 45.4558 24.1022 45.154 23.9271C44.8942 23.7385 44.712 23.4626 44.6386 23.1502C44.5223 22.6465 44.4712 22.13 44.4869 21.6133V18.2777C44.4712 17.761 44.5223 17.2445 44.6386 16.7408C44.712 16.4283 44.8942 16.1525 45.154 15.9639C45.4558 15.7887 45.8022 15.7066 46.1502 15.7274C46.518 15.7056 46.8833 15.7876 47.2058 15.9639C47.473 16.1485 47.6626 16.4251 47.7385 16.7408ZM67.2459 18.2946C67.3399 17.0188 66.9473 15.7548 66.1482 14.7564L66.2323 14.7225C65.3359 13.9493 64.1905 13.5239 63.0063 13.5239C61.8221 13.5239 60.6774 13.9493 59.781 14.7225C58.9811 15.7211 58.5894 16.9851 58.6834 18.2608V21.1573C58.6554 22.8909 58.9712 24.6128 59.612 26.224H62.1453C61.5813 24.5945 61.2959 22.8817 61.3009 21.1573V18.3115C61.2852 17.7947 61.3363 17.2782 61.4526 16.7745C61.4683 16.708 61.4889 16.6431 61.5136 16.5804C61.531 16.5363 61.5507 16.4933 61.573 16.4516C61.6678 16.2735 61.8023 16.1179 61.968 15.9977C62.2789 15.8423 62.6212 15.7614 62.9683 15.7614C63.1531 15.7614 63.3361 15.7842 63.5134 15.8287C63.6701 15.8681 63.8235 15.9247 63.9695 15.9977C64.2284 16.185 64.409 16.4618 64.4758 16.7745C64.6003 17.277 64.6539 17.7942 64.6366 18.3115V21.1742C64.6465 22.8989 64.3604 24.6126 63.7922 26.2409H66.3255C66.9688 24.6308 67.2813 22.9077 67.2459 21.1742V18.2946ZM78.0629 22.3321C78.0596 25.0449 76.6074 26.4012 73.7054 26.4012C70.8175 26.4012 69.3652 25.0417 69.3652 22.3225C69.3652 19.9412 70.4662 18.5929 72.6672 18.2776V17.5852C72.6696 17.5169 72.6647 17.4491 72.654 17.3826C72.6482 17.3513 72.6416 17.3202 72.6334 17.2895L72.6103 17.2143C72.5732 17.108 72.5187 17.0077 72.4478 16.918C72.2194 16.6536 71.9679 16.4105 71.6957 16.1918C71.6232 16.1342 71.5531 16.0743 71.4846 16.0122C71.4211 15.9554 71.3601 15.8969 71.3007 15.8366C71.2595 15.7953 71.2199 15.7533 71.1811 15.7105C71.0574 15.5569 70.9634 15.3824 70.9024 15.1953C70.8199 14.9217 70.7828 14.6365 70.7927 14.3508V13.7682H73.4778V14.0385C73.4704 14.2535 73.5355 14.4648 73.6634 14.638C73.8506 14.8619 74.0633 15.0632 74.2967 15.2375C74.6084 15.468 74.8748 15.7544 75.0818 16.082C75.255 16.4302 75.3366 16.8168 75.3185 17.2052V18.3958C77.1484 18.8512 78.0605 20.1586 78.0629 22.3321ZM74.9977 23.8257C75.269 23.3742 75.4116 22.8575 75.4116 22.331L75.4108 22.2484L75.4067 22.1599L75.4018 22.0925C75.3655 21.6493 75.2277 21.2193 74.9977 20.8363C74.8253 20.6705 74.6191 20.5433 74.3932 20.4633C74.3157 20.4359 74.2365 20.4143 74.1565 20.3984C74.0031 20.3679 73.8456 20.3588 73.6889 20.3719C73.4564 20.3515 73.223 20.3825 73.0036 20.4628C72.7851 20.5431 72.5864 20.6706 72.4223 20.8363C72.2639 21.111 72.1501 21.4081 72.085 21.716C72.0429 21.9174 72.0215 22.1235 72.0215 22.331C72.0215 22.6091 72.0602 22.8846 72.1361 23.15C72.2029 23.3851 72.2994 23.6121 72.4223 23.8257C72.5039 23.8921 72.5905 23.9516 72.6804 24.0038C72.7727 24.0572 72.8692 24.103 72.9682 24.141C73.1966 24.229 73.4407 24.275 73.6889 24.275C73.8135 24.275 73.9372 24.2634 74.0584 24.2406C74.3858 24.1794 74.695 24.0376 74.9556 23.8257H74.9977ZM88.9138 18.2946C89.0078 17.0188 88.6161 15.7548 87.8162 14.7564V14.7225C86.9198 13.9493 85.7743 13.5239 84.5901 13.5239C83.4059 13.5239 82.2613 13.9493 81.3649 14.7225C80.565 15.7211 80.1732 16.9851 80.2673 18.2608V21.1573C80.2409 22.89 80.5534 24.6111 81.1876 26.224H83.8133C83.2492 24.5945 82.9639 22.8817 82.9688 21.1573V18.3115C82.954 17.7947 83.0051 17.2782 83.1214 16.7745C83.1684 16.5719 83.2616 16.3846 83.3927 16.2265C83.4636 16.141 83.5453 16.064 83.636 15.9977C83.9452 15.8424 84.2866 15.7616 84.633 15.7616C84.9785 15.7616 85.3199 15.8424 85.6292 15.9977C85.8906 16.1841 86.0745 16.4608 86.1446 16.7745C86.2642 17.2778 86.3178 17.7944 86.3046 18.3115V21.1742C86.3145 22.8989 86.0292 24.6126 85.4601 26.2409H87.9935C88.6367 24.6308 88.9501 22.9077 88.9138 21.1742V18.2946ZM91.3631 13.7514H94.0143V22.2888C93.969 22.8296 94.1257 23.3681 94.4539 23.8004C94.5166 23.8569 94.5825 23.9089 94.6518 23.956C94.792 24.0511 94.9446 24.1266 95.1062 24.1801C95.347 24.2601 95.6026 24.2889 95.8558 24.2648C95.9638 24.275 96.0727 24.2758 96.1807 24.2671C96.3259 24.2554 96.4694 24.227 96.6079 24.1822C96.8504 24.1037 97.0738 23.9767 97.266 23.8089C97.5917 23.3791 97.7451 22.8429 97.6965 22.3057C97.6989 22.0332 97.6561 21.7621 97.5695 21.5035C97.4548 21.2157 97.3245 20.9339 97.181 20.6591C97.0013 20.3072 96.8462 19.9432 96.7168 19.5697C96.617 19.2241 96.5683 18.8654 96.5733 18.5057V18.2439H99.2246C99.2328 18.5507 99.2839 18.8549 99.3771 19.1475C99.4934 19.4898 99.6286 19.8253 99.782 20.1523C99.9791 20.614 100.123 20.994 100.213 21.2924C100.258 21.4459 100.292 21.6021 100.316 21.7598C100.346 21.9569 100.36 22.1565 100.357 22.3563C100.357 25.0756 98.8559 26.4351 95.8558 26.4351C92.8573 26.4351 91.3631 25.0756 91.3631 22.3395V13.7514ZM111.097 18.2946C111.191 17.0188 110.799 15.7548 110 14.7564L110.051 14.7225C109.153 13.9493 108.009 13.5239 106.825 13.5239C105.64 13.5239 104.496 13.9493 103.599 14.7225C102.803 15.7223 102.414 16.9861 102.509 18.2608V21.1573C102.479 22.8903 102.792 24.6123 103.43 26.224H105.964C105.4 24.5945 105.113 22.8817 105.119 21.1573V18.3115C105.101 17.7942 105.156 17.277 105.279 16.7745C105.346 16.4618 105.527 16.185 105.786 15.9977C105.966 15.9077 106.157 15.8426 106.353 15.8039C106.496 15.7757 106.641 15.7614 106.787 15.7614C107.134 15.7614 107.477 15.8423 107.787 15.9977C108.047 16.1862 108.23 16.4621 108.302 16.7745C108.419 17.2782 108.47 17.7947 108.454 18.3115V21.1742C108.464 22.8989 108.179 24.6126 107.61 26.2409H110.186C110.822 24.629 111.132 22.9068 111.097 21.1742V18.2946Z" fill="#6F787B"/>
<path fill-rule="evenodd" clip-rule="evenodd" d="M15.8945 17.7202C16.038 19.2318 16.1139 20.0171 14.8893 21.3092C12.5472 23.5071 9.95366 25.4204 7.16301 27.0092C5.67532 27.8817 4.12248 28.6383 2.51851 29.2724C1.47944 29.6524 0.592931 29.8129 0.162458 29.0529C0.0552523 28.8466 0 28.6179 0 28.3857C0 28.1536 0.0552523 27.9248 0.162458 27.7186C1.30214 24.6364 4.57027 18.894 6.70697 15.1532C6.92633 14.7731 7.14569 14.3762 7.38237 13.9794C10.6587 8.313 14.9824 1.38006 15.8269 0.265422C15.9539 0.104922 16.1815 -0.0808334 16.3844 0.0374026C16.4116 0.0570915 16.4355 0.0798728 16.4569 0.105231C16.4883 0.142856 16.513 0.186048 16.5295 0.232951C16.5567 0.3115 16.5592 0.396543 16.5361 0.476536L16.4924 0.651364L16.4602 0.78898C15.0501 6.51431 15.2018 12.13 15.8525 17.7202H15.8945ZM20.6907 19.4852C19.3144 18.8603 18.5969 18.531 18.0898 16.8252C17.355 13.6983 16.9946 10.495 17.0177 7.28289C17.0086 6.30907 17.0424 5.33576 17.1191 4.36575C17.1777 3.61871 17.2626 2.87362 17.3723 2.13174C17.5752 1.0339 17.8704 0.18945 18.7487 0.18945C18.9804 0.201511 19.2055 0.269236 19.4051 0.386854C19.6055 0.504471 19.7737 0.668476 19.8974 0.865055C21.9995 3.39842 25.3435 9.09849 27.4975 12.814L28.1729 13.9794C31.441 19.6542 35.2658 26.8996 35.773 28.1916C35.8488 28.3774 35.8991 28.6729 35.688 28.7911C35.6476 28.8074 35.6047 28.8172 35.5619 28.8205C35.5231 28.8234 35.4843 28.821 35.4464 28.8132C35.401 28.8039 35.3573 28.7871 35.3178 28.7638C35.2864 28.7458 35.2576 28.7238 35.232 28.6983L35.0044 28.4787C30.7821 24.3916 25.8168 21.723 20.6487 19.4852H20.6907ZM16.8627 22.6862L16.7645 22.7533C12.2462 26.1226 7.46731 29.0529 1.80106 30.6995L1.49676 30.784C1.41429 30.803 1.33925 30.8474 1.28317 30.911C1.2271 30.9747 1.19246 31.0543 1.18421 31.1386C1.18421 31.3751 1.46295 31.5018 1.66582 31.5018C3.05042 31.6876 11.2335 32 17.7863 32H19.1371L19.26 31.9994C23.5696 31.9739 30.0869 31.9357 33.2899 31.3836C33.5225 31.3744 33.7493 31.3089 33.9513 31.1927C34.1525 31.0765 34.3232 30.9131 34.4469 30.7164C34.8865 29.9648 34.3034 29.2809 33.459 28.5631C32.9972 28.197 32.5255 27.8433 32.0447 27.5024C31.1186 26.8449 30.1587 26.235 29.1691 25.675C26.4007 24.0523 23.4501 22.7625 20.379 21.8327C18.6934 21.4301 18.0329 21.8832 16.8627 22.6862Z" fill="#0095cb"/>
</svg>
