<svg width="32" height="32" viewBox="0 0 32 32" fill="none" xmlns="http://www.w3.org/2000/svg">
<circle opacity="0.2" cx="16" cy="16" r="16" fill="#4877FE"/>
<path d="M23.5 22.6667H21.8333V16.0001H22.6667C23.3833 16.0001 24.025 15.5417 24.25 14.8584C24.475 14.1751 24.25 13.4251 23.6667 13.0001L17 8.00008C16.7 7.77508 16.35 7.66675 16 7.66675C15.65 7.66675 15.3 7.77508 15 8.00008L8.33333 13.0001C7.75833 13.4334 7.525 14.1834 7.75 14.8584C7.975 15.5334 8.61666 16.0001 9.33333 16.0001H10.1667V22.6667H8.5C8.04166 22.6667 7.66666 23.0417 7.66666 23.5001C7.66666 23.9584 8.04166 24.3334 8.5 24.3334H23.5C23.9583 24.3334 24.3333 23.9584 24.3333 23.5001C24.3333 23.0417 23.9583 22.6667 23.5 22.6667ZM20.1667 22.6667H18.5V16.0001H20.1667V22.6667ZM16.8333 16.0001V22.6667H15.1667V16.0001H16.8333ZM16 9.33341L22.6667 14.3334H9.33333L16 9.33341ZM11.8333 16.0001H13.5V22.6667H11.8333V16.0001Z" fill="#4877FE"/>
</svg>
