<svg width="32" height="32" viewBox="0 0 32 32" fill="none" xmlns="http://www.w3.org/2000/svg">
<circle opacity="0.2" cx="16" cy="16" r="16" fill="#099691"/>
<path d="M21 7.66675H11C9.15835 7.66675 7.66669 9.15841 7.66669 11.0001V13.5001C7.66669 15.3417 9.15835 16.8334 11 16.8334V21.8334C11 23.2084 12.125 24.3334 13.5 24.3334H18.5C19.875 24.3334 21 23.2084 21 21.8334V16.8334C22.8417 16.8334 24.3334 15.3417 24.3334 13.5001V11.0001C24.3334 9.15841 22.8417 7.66675 21 7.66675ZM12.6667 21.8334V12.6667H14.3334V22.6667H13.5C13.0417 22.6667 12.6667 22.2917 12.6667 21.8334ZM18.5 22.6667H16V12.6667H19.3334V21.8334C19.3334 22.2917 18.9584 22.6667 18.5 22.6667ZM22.6667 13.5001C22.6667 14.4167 21.9167 15.1667 21 15.1667V12.6667H21.8334V11.0001H10.1667V12.6667H11V15.1667C10.0834 15.1667 9.33335 14.4167 9.33335 13.5001V11.0001C9.33335 10.0834 10.0834 9.33341 11 9.33341H21C21.9167 9.33341 22.6667 10.0834 22.6667 11.0001V13.5001Z" fill="#099691"/>
</svg>
