<svg width="24" height="24" viewBox="0 0 24 24" fill="none" xmlns="http://www.w3.org/2000/svg">
<path fill-rule="evenodd" clip-rule="evenodd" d="M22 15.9999V8C22 5.79086 20.2091 4 18 4H6C3.79086 4 2 5.79086 2 8V15.9999C2 18.2091 3.79086 19.9999 6 19.9999H18C20.2091 19.9999 22 18.2091 22 15.9999ZM4.22531 7.07689C4.55887 6.43694 5.22841 6 6 6H18C18.7716 6 19.4411 6.43692 19.7747 7.07685L12.5214 11.5094C12.2013 11.705 11.7986 11.705 11.4785 11.5094L4.22531 7.07689ZM4 9.28309L10.4356 13.216C11.3959 13.8028 12.604 13.8028 13.5643 13.216L20 9.28304V15.9999C20 17.1045 19.1046 17.9999 18 17.9999H6C4.89543 17.9999 4 17.1045 4 15.9999V9.28309Z" fill="#4D4D4D"/>
</svg>
