<svg width="32" height="32" viewBox="0 0 32 32" fill="none" xmlns="http://www.w3.org/2000/svg">
<circle opacity="0.2" cx="16" cy="16" r="16" fill="#ED8C39"/>
<path d="M23.8334 15.1666L17.1667 8.24996C16.9167 7.83329 16.4167 7.66663 16 7.66663C15.5834 7.66663 15.0834 7.83329 14.8334 8.16663L8.16669 15.0833C7.83335 15.4166 7.66669 15.8333 7.66669 16.25V22.6666C7.66669 23.5833 8.41669 24.3333 9.33335 24.3333H22.6667C23.5834 24.3333 24.3334 23.5833 24.3334 22.6666V16.25C24.3334 15.8333 24.1667 15.4166 23.8334 15.1666ZM22.6667 22.6666H19.3334V19.3333C19.3334 18.8333 19 18.5 18.5 18.5C18 18.5 17.6667 18.8333 17.6667 19.3333V22.6666H9.33335V16.25L16 9.33329L22.6667 16.25V22.6666ZM13.5 15.1666C13 15.1666 12.6667 15.5 12.6667 16V18.5C12.6667 19 13 19.3333 13.5 19.3333C14 19.3333 14.3334 19 14.3334 18.5V16C14.3334 15.5 14 15.1666 13.5 15.1666Z" fill="#ED8C39"/>
</svg>
