<svg width="24" height="24" viewBox="0 0 24 24" fill="none" xmlns="http://www.w3.org/2000/svg">
<path d="M22 12C22 6.49 17.51 2 12 2C6.49 2 2 6.49 2 12C2 17.51 6.49 22 12 22C17.51 22 22 17.51 22 12ZM19.93 11H16.98C16.89 8.75 16.46 6.56 15.69 4.9C17.97 6.09 19.61 8.34 19.94 11H19.93ZM12 20C10.47 20 9.21 16.95 9.03 13H14.98C14.8 16.95 13.54 20 12.01 20H12ZM9.03 11C9.21 7.05 10.47 4 12 4C13.53 4 14.79 7.05 14.97 11H9.02H9.03ZM8.32 4.9C7.54 6.56 7.12 8.74 7.03 11H4.08C4.41 8.34 6.05 6.09 8.33 4.9H8.32ZM4.07 13H7.02C7.11 15.25 7.54 17.44 8.31 19.1C6.03 17.91 4.39 15.66 4.06 13H4.07ZM15.68 19.1C16.46 17.44 16.88 15.26 16.97 13H19.92C19.59 15.66 17.95 17.91 15.67 19.1H15.68Z" fill="#00ADEE"/>
</svg>
