<svg width="32" height="32" viewBox="0 0 32 32" fill="none" xmlns="http://www.w3.org/2000/svg">
<circle opacity="0.1" cx="16" cy="16" r="16" fill="#A056D6"/>
<path d="M17.6667 9.33329V14.3333H22.6667V17.6666H17.6667V22.6666H14.3334V17.6666H9.33335V14.3333H14.3334V9.33329H17.6667ZM17.6667 7.66663H14.3334C13.4167 7.66663 12.6667 8.41663 12.6667 9.33329V12.6666H9.33335C8.41669 12.6666 7.66669 13.4166 7.66669 14.3333V17.6666C7.66669 18.5833 8.41669 19.3333 9.33335 19.3333H12.6667V22.6666C12.6667 23.5833 13.4167 24.3333 14.3334 24.3333H17.6667C18.5834 24.3333 19.3334 23.5833 19.3334 22.6666V19.3333H22.6667C23.5834 19.3333 24.3334 18.5833 24.3334 17.6666V14.3333C24.3334 13.4166 23.5834 12.6666 22.6667 12.6666H19.3334V9.33329C19.3334 8.41663 18.5834 7.66663 17.6667 7.66663Z" fill="#A056D6"/>
</svg>
