<svg width="24" height="24" viewBox="0 0 24 24" fill="none" xmlns="http://www.w3.org/2000/svg">
<path d="M21.7 11.3L17.7 7.3C17.3 6.9 16.7 6.9 16.3 7.3C15.9 7.7 15.9 8.3 16.3 8.7L18.6 11H12C11.4 11 11 11.4 11 12C11 12.6 11.4 13 12 13H18.6L16.3 15.3C15.9 15.7 15.9 16.3 16.3 16.7C16.5 16.9 16.8 17 17 17C17.2 17 17.5 16.9 17.7 16.7L21.7 12.7C21.9 12.5 22 12.3 22 12C22 11.7 21.9 11.5 21.7 11.3ZM12 17C11.4 17 11 17.4 11 18C11 19.1 10.1 20 9 20H6C4.9 20 4 19.1 4 18V6C4 4.9 4.9 4 6 4H9C10.1 4 11 4.9 11 6C11 6.6 11.4 7 12 7C12.6 7 13 6.6 13 6C13 3.8 11.2 2 9 2H6C3.8 2 2 3.8 2 6V18C2 20.2 3.8 22 6 22H9C11.2 22 13 20.2 13 18C13 17.4 12.6 17 12 17Z" fill="#525252"/>
</svg>
