<svg width="32" height="32" viewBox="0 0 32 32" fill="none" xmlns="http://www.w3.org/2000/svg">
<circle opacity="0.2" cx="16" cy="16" r="16" fill="#FF7655"/>
<path d="M21 14.3334C21.9205 14.3334 22.6666 15.0796 22.6666 16C22.6666 16.9205 21.9205 17.6667 21 17.6667C20.0795 17.6667 19.3333 16.9205 19.3333 16C19.3333 15.0796 20.0795 14.3334 21 14.3334Z" fill="#FF7655"/>
<path d="M16 14.3334C16.9205 14.3334 17.6666 15.0796 17.6666 16C17.6666 16.9205 16.9205 17.6667 16 17.6667C15.0795 17.6667 14.3333 16.9205 14.3333 16C14.3333 15.0796 15.0795 14.3334 16 14.3334Z" fill="#FF7655"/>
<path d="M12.6666 16C12.6666 15.0796 11.9205 14.3334 11 14.3334C10.0795 14.3334 9.33331 15.0796 9.33331 16C9.33331 16.9205 10.0795 17.6667 11 17.6667C11.9205 17.6667 12.6666 16.9205 12.6666 16Z" fill="#FF7655"/>
</svg>
