<svg width="32" height="32" viewBox="0 0 32 32" fill="none" xmlns="http://www.w3.org/2000/svg">
<circle opacity="0.2" cx="16" cy="16" r="16" fill="#167C80"/>
<path d="M21 14.3333C21.9205 14.3333 22.6666 15.0794 22.6666 15.9999C22.6666 16.9204 21.9205 17.6666 21 17.6666C20.0795 17.6666 19.3333 16.9204 19.3333 15.9999C19.3333 15.0794 20.0795 14.3333 21 14.3333Z" fill="#167C80"/>
<path d="M16 14.3333C16.9205 14.3333 17.6666 15.0794 17.6666 15.9999C17.6666 16.9204 16.9205 17.6666 16 17.6666C15.0795 17.6666 14.3333 16.9204 14.3333 15.9999C14.3333 15.0794 15.0795 14.3333 16 14.3333Z" fill="#167C80"/>
<path d="M12.6666 15.9999C12.6666 15.0794 11.9205 14.3333 11 14.3333C10.0795 14.3333 9.33331 15.0794 9.33331 15.9999C9.33331 16.9204 10.0795 17.6666 11 17.6666C11.9205 17.6666 12.6666 16.9204 12.6666 15.9999Z" fill="#167C80"/>
</svg>
