<svg width="32" height="32" viewBox="0 0 32 32" fill="none" xmlns="http://www.w3.org/2000/svg">
<circle opacity="0.2" cx="16" cy="16" r="16" fill="#0EC6F2"/>
<path d="M23.5 19.3333H12.1667L14.0834 17.4166C14.4167 17.0833 14.4167 16.5833 14.0834 16.25C13.75 15.9166 13.25 15.9166 12.9167 16.25L9.58335 19.5833C9.41669 19.75 9.33335 19.9166 9.33335 20.1666C9.33335 20.4166 9.41669 20.5833 9.58335 20.75L12.9167 24.0833C13.0834 24.25 13.25 24.3333 13.5 24.3333C13.75 24.3333 13.9167 24.25 14.0834 24.0833C14.4167 23.75 14.4167 23.25 14.0834 22.9166L12.1667 21H23.5C24 21 24.3334 20.6666 24.3334 20.1666C24.3334 19.6666 24 19.3333 23.5 19.3333ZM17.9167 14.5833C17.5834 14.9166 17.5834 15.4166 17.9167 15.75C18.0834 15.9166 18.3334 16 18.5 16C18.75 16 18.9167 15.9166 19.0834 15.75L22.4167 12.4166C22.5834 12.25 22.6667 12.0833 22.6667 11.8333C22.6667 11.5833 22.5834 11.4166 22.4167 11.25L19.0834 7.91663C18.75 7.58329 18.25 7.58329 17.9167 7.91663C17.5834 8.24996 17.5834 8.74996 17.9167 9.08329L19.8334 11H8.50002C8.00002 11 7.66669 11.3333 7.66669 11.8333C7.66669 12.3333 8.00002 12.6666 8.50002 12.6666H19.8334L17.9167 14.5833Z" fill="#0EC6F2"/>
</svg>
