<svg width="32" height="32" viewBox="0 0 32 32" fill="none" xmlns="http://www.w3.org/2000/svg">
<circle opacity="0.2" cx="16" cy="16" r="16" fill="#EA4C5E"/>
<path d="M16 9.33333V14.3333L14.3334 17.25V21.8333C14.3334 23.25 13.25 24.3333 11.8334 24.3333C10.4167 24.3333 9.33335 23.25 9.33335 21.8333V17.25L8.00002 14.9167C7.75002 14.5833 7.66669 14.0833 7.66669 13.6667V9.33333C7.66669 8.83333 8.00002 8.5 8.50002 8.5C9.00002 8.5 9.33335 8.83333 9.33335 9.33333V13.6667C9.33335 13.8333 9.33335 13.9167 9.41669 14.0833L11 16.8333V21.8333C11 22.3333 11.3334 22.6667 11.8334 22.6667C12.3334 22.6667 12.6667 22.3333 12.6667 21.8333V16.8333L14.3334 13.9167V9.33333C14.3334 8.83333 14.6667 8.5 15.1667 8.5C15.6667 8.5 16 8.83333 16 9.33333ZM11.8334 14.3333C12.3334 14.3333 12.6667 14 12.6667 13.5V9.33333C12.6667 8.83333 12.3334 8.5 11.8334 8.5C11.3334 8.5 11 8.83333 11 9.33333V13.5C11 14 11.3334 14.3333 11.8334 14.3333ZM24.3334 11V16C24.3334 17.0833 23.6667 18 22.6667 18.3333V21.8333C22.6667 23.25 21.5834 24.3333 20.1667 24.3333C18.75 24.3333 17.6667 23.25 17.6667 21.8333V11C17.6667 9.58333 18.75 8.5 20.1667 8.5H21.8334C23.25 8.5 24.3334 9.58333 24.3334 11ZM22.6667 11C22.6667 10.5 22.3334 10.1667 21.8334 10.1667H20.1667C19.6667 10.1667 19.3334 10.5 19.3334 11V21.8333C19.3334 22.3333 19.6667 22.6667 20.1667 22.6667C20.6667 22.6667 21 22.3333 21 21.8333V16.8333H21.8334C22.3334 16.8333 22.6667 16.5 22.6667 16V11Z" fill="#EA4C5E"/>
</svg>
