<svg width="24" height="24" viewBox="0 0 24 24" fill="none" xmlns="http://www.w3.org/2000/svg">
<path d="M21.1 9.00006L19 8.70006L18.3 7.40006L19 5.30006C19.1 4.90006 19 4.40006 18.6 4.20006L15.6 2.20006C15.2 1.90006 14.7 2.00006 14.3 2.30006L12.6 4.00006H11.4L9.7 2.30006C9.4 2.00006 8.8 1.90006 8.4 2.20006L5.4 4.20006C5.1 4.40006 4.9 4.90006 5.1 5.30006L5.8 7.40006L5 8.70006L2.9 9.00006C2.4 9.10006 2 9.50006 2 10.0001V14.0001C2 14.5001 2.4 14.9001 2.9 15.0001L5 15.3001L5.7 16.6001L5 18.7001C4.9 19.1001 5 19.6001 5.4 19.8001L8.4 21.8001C8.8 22.1001 9.3 22.0001 9.7 21.7001L11.4 20.0001H12.6L14.3 21.7001C14.5 21.9001 14.7 22.0001 15 22.0001C15.2 22.0001 15.4 21.9001 15.6 21.8001L18.6 19.8001C19 19.5001 19.1 19.1001 19 18.7001L18.3 16.6001L19 15.3001L21.2 15.0001C21.7 14.9001 22.1 14.5001 22.1 14.0001V10.0001C22 9.50006 21.6 9.10006 21.1 9.00006ZM20 13.1001L18.2 13.4001C17.9 13.4001 17.6 13.6001 17.5 13.9001L16.3 16.0001C16.2 16.2001 16.1 16.5001 16.2 16.8001L16.8 18.6001L15.1 19.7001L13.7 18.3001C13.5 18.1001 13.3 18.0001 13 18.0001H11C10.7 18.0001 10.5 18.1001 10.3 18.3001L8.9 19.7001L7.2 18.6001L7.8 16.8001C7.9 16.5001 7.9 16.2001 7.7 16.0001L6.5 13.9001C6.3 13.6001 6.1 13.4001 5.8 13.4001L4 13.1001V10.8001L5.8 10.5001C6.1 10.5001 6.4 10.3001 6.5 10.0001L7.7 8.00006C7.8 7.80006 7.9 7.50006 7.8 7.20006L7.2 5.40006L8.9 4.30006L10.3 5.70006C10.5 5.90006 10.7 6.00006 11 6.00006H13C13.3 6.00006 13.5 5.90006 13.7 5.70006L15.1 4.30006L16.8 5.40006L16.2 7.20006C16.1 7.50006 16.1 7.80006 16.3 8.00006L17.5 10.1001C17.7 10.4001 17.9 10.6001 18.2 10.6001L20 10.9001V13.1001ZM12 8.00006C9.8 8.00006 8 9.80006 8 12.0001C8 14.2001 9.8 16.0001 12 16.0001C14.2 16.0001 16 14.2001 16 12.0001C16 9.80006 14.2 8.00006 12 8.00006ZM12 14.0001C10.9 14.0001 10 13.1001 10 12.0001C10 10.9001 10.9 10.0001 12 10.0001C13.1 10.0001 14 10.9001 14 12.0001C14 13.1001 13.1 14.0001 12 14.0001Z" fill="#4D4D4D"/>
</svg>
