<svg width="32" height="32" viewBox="0 0 32 32" fill="none" xmlns="http://www.w3.org/2000/svg">
<circle opacity="0.2" cx="16" cy="16" r="16" fill="#ED3D88"/>
<path d="M24.05 11.7334C23.7417 11.2751 23.225 11.0001 22.6667 11.0001H12.6667C12.6667 9.15845 11.1834 7.65845 9.34169 7.65845H8.50002C8.04169 7.65845 7.66669 8.03345 7.66669 8.49178C7.66669 8.95011 8.04169 9.32511 8.50002 9.32511H9.34169C10.2667 9.32511 11 10.0751 11 10.9918V16.8334C11 17.7501 11.75 18.5001 12.6667 18.5001H21C21.6834 18.5001 22.2917 18.0834 22.55 17.4501L24.2167 13.2834C24.425 12.7668 24.3584 12.1918 24.05 11.7334ZM21 16.8334H12.6667V12.6668H22.6667L21 16.8334ZM11.8334 19.3334C10.45 19.3334 9.33335 20.4501 9.33335 21.8334C9.33335 23.2168 10.45 24.3334 11.8334 24.3334C13.2167 24.3334 14.3334 23.2168 14.3334 21.8334C14.3334 20.4501 13.2167 19.3334 11.8334 19.3334ZM11.8334 22.6668C11.375 22.6668 11 22.2918 11 21.8334C11 21.3751 11.375 21.0001 11.8334 21.0001C12.2917 21.0001 12.6667 21.3751 12.6667 21.8334C12.6667 22.2918 12.2917 22.6668 11.8334 22.6668ZM21 19.3334C19.6167 19.3334 18.5 20.4501 18.5 21.8334C18.5 23.2168 19.6167 24.3334 21 24.3334C22.3834 24.3334 23.5 23.2168 23.5 21.8334C23.5 20.4501 22.3834 19.3334 21 19.3334ZM21 22.6668C20.5417 22.6668 20.1667 22.2918 20.1667 21.8334C20.1667 21.3751 20.5417 21.0001 21 21.0001C21.4584 21.0001 21.8334 21.3751 21.8334 21.8334C21.8334 22.2918 21.4584 22.6668 21 22.6668Z" fill="#ED3D88"/>
</svg>
