<svg width="20" height="20" viewBox="0 0 20 20" fill="none" xmlns="http://www.w3.org/2000/svg">
<path d="M13.9167 7.75033C14.2501 8.08366 14.2501 8.58366 13.9167 8.91699L9.75008 13.0837C9.66675 13.167 9.66675 13.167 9.58342 13.167L9.50008 13.2503C9.33341 13.3337 9.25008 13.3337 9.16675 13.3337C9.08341 13.3337 8.91675 13.3337 8.83342 13.2503L8.75008 13.167C8.66675 13.167 8.66675 13.0837 8.58342 13.0837L6.08342 10.5837C5.75008 10.2503 5.75008 9.75033 6.08342 9.41699C6.41675 9.08366 6.91675 9.08366 7.25008 9.41699L9.16675 11.3337L12.7501 7.75033C13.0834 7.41699 13.5834 7.41699 13.9167 7.75033ZM18.3334 10.0003C18.3334 14.5837 14.5834 18.3337 10.0001 18.3337C5.41675 18.3337 1.66675 14.5837 1.66675 10.0003C1.66675 5.41699 5.41675 1.66699 10.0001 1.66699C14.5834 1.66699 18.3334 5.41699 18.3334 10.0003ZM16.6667 10.0003C16.6667 6.33366 13.6667 3.33366 10.0001 3.33366C6.33341 3.33366 3.33341 6.33366 3.33341 10.0003C3.33341 13.667 6.33341 16.667 10.0001 16.667C13.6667 16.667 16.6667 13.667 16.6667 10.0003Z" fill="#00811E"/>
</svg>
