<svg width="32" height="32" viewBox="0 0 32 32" fill="none" xmlns="http://www.w3.org/2000/svg">
<circle opacity="0.2" cx="16" cy="16" r="16" fill="#6339ED"/>
<path d="M24.3334 16V19.5C24.3334 20.5833 23.6667 21.5 22.6667 21.8333V22.25C22.6667 22.9167 22.0834 23.5 21.4167 23.5C20.75 23.5 20.1667 22.9167 20.1667 22.25V22H11.8334V22.25C11.8334 22.9167 11.25 23.5 10.5834 23.5C9.91669 23.5 9.33335 22.9167 9.33335 22.25V21.8333C8.33335 21.5 7.66669 20.5833 7.66669 19.5V16C7.66669 15.3333 7.91669 14.6667 8.41669 14.1667C8.75002 13.8333 9.25002 13.5833 9.75002 13.5L10.75 10.3333C11 9.25 12 8.5 13.0834 8.5H19C20.1667 8.5 21.0834 9.25 21.4167 10.3333L22.25 13.5C23.4167 13.75 24.3334 14.75 24.3334 16ZM12.25 10.8333L11.5 13.5H20.5834L19.8334 10.75C19.6667 10.4167 19.3334 10.1667 19 10.1667H13.0834C12.75 10.1667 12.4167 10.4167 12.25 10.8333ZM9.33335 19.3333C9.33335 19.8333 9.66669 20.1667 10.1667 20.1667H21.8334C22.3334 20.1667 22.6667 19.8333 22.6667 19.3333V16C22.6667 15.5833 22.3334 15.1667 21.8334 15.1667H10.0834C9.75002 15.1667 9.33335 15.3333 9.33335 16V19.3333ZM13.5 17.6667C13.5 17.1667 13.1667 16.8333 12.6667 16.8333H11.8334C11.3334 16.8333 11 17.1667 11 17.6667C11 18.1667 11.3334 18.5 11.8334 18.5H12.6667C13.1667 18.5 13.5 18.1667 13.5 17.6667ZM21 17.6667C21 17.1667 20.6667 16.8333 20.1667 16.8333H19.3334C18.8334 16.8333 18.5 17.1667 18.5 17.6667C18.5 18.1667 18.8334 18.5 19.3334 18.5H20.1667C20.6667 18.5 21 18.1667 21 17.6667Z" fill="#6339ED"/>
</svg>
