<svg width="32" height="32" viewBox="0 0 32 32" fill="none" xmlns="http://www.w3.org/2000/svg">
<circle opacity="0.2" cx="16" cy="16" r="16" fill="#FAC141"/>
<path d="M10.7583 11.2417C11.0833 11.5667 11.0833 12.0917 10.7583 12.4167C10.5917 12.5834 10.3833 12.6584 10.1667 12.6584C9.95001 12.6584 9.74167 12.5751 9.57501 12.4167L8.74167 11.5834C8.41667 11.2584 8.41667 10.7334 8.74167 10.4084C9.06667 10.0834 9.59167 10.0834 9.91667 10.4084L10.75 11.2417H10.7583ZM23.2583 10.4084C22.9333 10.0834 22.4083 10.0834 22.0833 10.4084L21.25 11.2417C20.925 11.5667 20.925 12.0917 21.25 12.4167C21.4167 12.5834 21.625 12.6584 21.8417 12.6584C22.0583 12.6584 22.2667 12.5751 22.4333 12.4167L23.2667 11.5834C23.5917 11.2584 23.5917 10.7334 23.2667 10.4084H23.2583ZM16 10.1667C16.4583 10.1667 16.8333 9.79175 16.8333 9.33341V8.50008C16.8333 8.04175 16.4583 7.66675 16 7.66675C15.5417 7.66675 15.1667 8.04175 15.1667 8.50008V9.33341C15.1667 9.79175 15.5417 10.1667 16 10.1667ZM12.4583 12.4584C10.6583 14.2417 10.5 17.0667 12.0917 19.0334C12.3833 19.3917 12.9083 19.4501 13.2667 19.1584C13.625 18.8667 13.6833 18.3417 13.3917 17.9834C12.3417 16.6917 12.45 14.8251 13.6333 13.6417C14.9333 12.3501 17.05 12.3501 18.35 13.6417C19.5333 14.8167 19.65 16.6834 18.6167 17.9917C18.3333 18.3501 18.3917 18.8751 18.75 19.1667C18.9 19.2917 19.0833 19.3501 19.2667 19.3501C19.5083 19.3501 19.7583 19.2417 19.9167 19.0334C21.4833 17.0667 21.3167 14.2417 19.525 12.4667C17.575 10.5334 14.4083 10.5334 12.4583 12.4667V12.4584ZM17.6667 20.1667H14.3333C13.875 20.1667 13.5 20.5417 13.5 21.0001C13.5 21.4584 13.875 21.8334 14.3333 21.8334H17.6667C18.125 21.8334 18.5 21.4584 18.5 21.0001C18.5 20.5417 18.125 20.1667 17.6667 20.1667ZM16.8333 22.6667H15.1667C14.7083 22.6667 14.3333 23.0417 14.3333 23.5001C14.3333 23.9584 14.7083 24.3334 15.1667 24.3334H16.8333C17.2917 24.3334 17.6667 23.9584 17.6667 23.5001C17.6667 23.0417 17.2917 22.6667 16.8333 22.6667Z" fill="#FAC141"/>
</svg>
